# xmcd
#
# Track frame offsets: 
#        150
#        14341
#        33359
#        49213
#        64721
#        85508
#        102928
#        120781
#        138060
#
# Disc length: 2089 seconds
#
# Revision: 0
# Processed by: cddbd v1.5.2PL0 Copyright (c) Steve Scherf et al.
# Submitted via: ExactAudioCopy v1.0b3
#
DISCID=62082709
DTITLE=Chad Ware - Tell Me Something
DYEAR=2010
DGENRE=Country
TTITLE0=Tell Me Something
TTITLE1=Alone
TTITLE2=I Want a Girl Who Ain't Like You
TTITLE3=She Makes My Heart Beat Fast
TTITLE4=Everywhere I Go
TTITLE5=Baby Don't Say You Love Me
TTITLE6=Back Up On My Feet
TTITLE7=That Guitar Won't Take You Anywhere
TTITLE8=Alone (acoustic version)
EXTD=
EXTT0=
EXTT1=
EXTT2=
EXTT3=
EXTT4=
EXTT5=
EXTT6=
EXTT7=
EXTT8=
PLAYORDER=
